# Blender v2.90.0 OBJ File: 'crystal.blend'
# www.blender.org
mtllib crystal.mtl
o Icosphere
v 0.000000 -0.506451 -0.000000
v 0.153698 -0.226492 0.111667
v -0.058706 -0.226492 0.180682
v -0.189982 -0.226492 -0.000000
v -0.058706 -0.226492 -0.180682
v 0.153698 -0.226492 -0.111667
v 0.058706 0.226493 0.180682
v -0.153698 0.226493 0.111667
v -0.153698 0.226493 -0.111667
v 0.058706 0.226493 -0.180682
v 0.189982 0.226493 -0.000000
v 0.000000 0.506451 -0.000000
vt 0.906086 0.354747
vt 0.896088 0.372064
vt 0.916083 0.372064
vt 0.886090 0.354747
vt 0.876093 0.372064
vt 0.826104 0.354747
vt 0.816106 0.372064
vt 0.836102 0.372064
vt 0.846099 0.354747
vt 0.856097 0.372064
vt 0.866095 0.354747
vt 0.638275 0.360345
vt 0.618280 0.360345
vt 0.628278 0.377662
vt 0.658271 0.360345
vt 0.648273 0.377662
vt 0.578289 0.360345
vt 0.558294 0.360345
vt 0.568292 0.377662
vt 0.598285 0.360345
vt 0.588287 0.377662
vt 0.608282 0.377662
vt 0.886090 0.389381
vt 0.906086 0.389381
vt 0.926081 0.389381
vt 0.826104 0.389381
vt 0.846099 0.389381
vt 0.866095 0.389381
vt 0.896088 0.406697
vt 0.916083 0.406697
vt 0.836102 0.406697
vt 0.856097 0.406697
vt 0.876093 0.406697
vn 0.2709 -0.4812 0.8337
vn 0.8766 -0.4812 0.0000
vn -0.7092 -0.4812 0.5153
vn -0.7092 -0.4812 -0.5153
vn 0.2709 -0.4812 -0.8337
vn 0.9968 -0.0798 0.0000
vn 0.3080 -0.0798 0.9480
vn -0.8064 -0.0798 0.5859
vn -0.8064 -0.0798 -0.5859
vn 0.3080 -0.0798 -0.9480
vn 0.8064 0.0798 0.5859
vn -0.3080 0.0798 0.9480
vn -0.9968 0.0798 0.0000
vn -0.3080 0.0798 -0.9480
vn 0.8064 0.0798 -0.5859
vn 0.7092 0.4812 0.5153
vn -0.2709 0.4812 0.8337
vn -0.8766 0.4812 0.0000
vn -0.2709 0.4812 -0.8337
vn 0.7092 0.4812 -0.5153
usemtl Material.001
s off
f 1/1/1 2/2/1 3/3/1
f 2/2/2 1/4/2 6/5/2
f 1/6/3 3/7/3 4/8/3
f 1/9/4 4/8/4 5/10/4
f 1/11/5 5/10/5 6/5/5
f 2/12/6 6/13/6 11/14/6
f 3/15/7 2/12/7 7/16/7
f 4/17/8 3/18/8 8/19/8
f 5/20/9 4/17/9 9/21/9
f 6/13/10 5/20/10 10/22/10
f 2/2/11 11/23/11 7/24/11
f 3/3/12 7/24/12 8/25/12
f 4/8/13 8/26/13 9/27/13
f 5/10/14 9/27/14 10/28/14
f 6/5/15 10/28/15 11/23/15
f 7/24/16 11/23/16 12/29/16
f 8/25/17 7/24/17 12/30/17
f 9/27/18 8/26/18 12/31/18
f 10/28/19 9/27/19 12/32/19
f 11/23/20 10/28/20 12/33/20
