# Blender v2.90.0 OBJ File: 'hut.blend'
# www.blender.org
mtllib hut.mtl
o Cylinder
v 0.000000 0.000000 -1.000000
v 0.000000 1.000000 -1.000000
v 0.195090 0.000000 -0.980785
v 0.195090 1.000000 -0.980785
v 0.382683 0.000000 -0.923880
v 0.382683 1.000000 -0.923880
v 0.555570 0.000000 -0.831470
v 0.555570 1.000000 -0.831470
v 0.707107 0.000000 -0.707107
v 0.707107 1.000000 -0.707107
v 0.831470 0.000000 -0.555570
v 0.831470 1.000000 -0.555570
v 0.923880 0.000000 -0.382683
v 0.923880 1.000000 -0.382683
v 0.980785 0.000000 -0.195090
v 0.980785 1.000000 -0.195090
v 1.000000 0.000000 -0.000000
v 1.000000 1.000000 -0.000000
v 0.980785 0.000000 0.195090
v 0.980785 1.000000 0.195090
v 0.923880 0.000000 0.382683
v 0.923880 1.000000 0.382683
v 0.831470 0.000000 0.555570
v 0.831470 1.000000 0.555570
v 0.707107 0.000000 0.707107
v 0.707107 1.000000 0.707107
v 0.555570 0.000000 0.831470
v 0.555570 1.000000 0.831470
v 0.382683 0.000000 0.923880
v 0.382683 1.000000 0.923880
v 0.195090 0.000000 0.980785
v 0.195090 1.000000 0.980785
v -0.000000 1.000000 1.000000
v -0.195091 0.000000 0.980785
v -0.195091 1.000000 0.980785
v -0.382684 0.000000 0.923879
v -0.382684 1.000000 0.923879
v -0.555571 0.000000 0.831469
v -0.555571 1.000000 0.831469
v -0.707107 0.000000 0.707106
v -0.707107 1.000000 0.707106
v -0.831470 0.000000 0.555570
v -0.831470 1.000000 0.555570
v -0.923880 0.000000 0.382683
v -0.923880 1.000000 0.382683
v -0.980785 0.000000 0.195089
v -0.980785 1.000000 0.195089
v -1.000000 0.000000 -0.000001
v -1.000000 1.000000 -0.000001
v -0.980785 0.000000 -0.195091
v -0.980785 1.000000 -0.195091
v -0.923879 0.000000 -0.382684
v -0.923879 1.000000 -0.382684
v -0.831469 0.000000 -0.555571
v -0.831469 1.000000 -0.555571
v -0.707106 0.000000 -0.707108
v -0.707106 1.000000 -0.707108
v -0.555569 0.000000 -0.831470
v -0.555569 1.000000 -0.831470
v -0.382682 0.000000 -0.923880
v -0.382682 1.000000 -0.923880
v -0.195089 0.000000 -0.980786
v -0.195089 1.000000 -0.980786
v 0.240012 1.000000 -1.206624
v 0.000000 1.000000 -1.230263
v 0.470801 1.000000 -1.136615
v 0.683497 1.000000 -1.022926
v 0.869927 1.000000 -0.869927
v 1.022926 1.000000 -0.683497
v 1.136615 1.000000 -0.470801
v 1.206624 1.000000 -0.240012
v 1.230263 1.000000 -0.000000
v 1.206624 1.000000 0.240012
v 1.136615 1.000000 0.470801
v 1.022926 1.000000 0.683497
v 0.869927 1.000000 0.869927
v 0.683497 1.000000 1.022926
v 0.470801 1.000000 1.136615
v 0.240012 1.000000 1.206624
v -0.000000 1.000000 1.230263
v -0.240013 1.000000 1.206624
v -0.470802 1.000000 1.136615
v -0.683498 1.000000 1.022926
v -0.869928 1.000000 0.869927
v -1.022927 1.000000 0.683497
v -1.136615 1.000000 0.470800
v -1.206624 1.000000 0.240011
v -1.230263 1.000000 -0.000001
v -1.206624 1.000000 -0.240014
v -1.136614 1.000000 -0.470803
v -1.022925 1.000000 -0.683499
v -0.869926 1.000000 -0.869928
v -0.683496 1.000000 -1.022927
v -0.470800 1.000000 -1.136616
v -0.240011 1.000000 -1.206624
v 0.009855 2.314399 -0.049545
v 0.000000 2.314399 -0.050515
v 0.019331 2.314399 -0.046670
v 0.028065 2.314399 -0.042002
v 0.035720 2.314399 -0.035720
v 0.042002 2.314399 -0.028065
v 0.046670 2.314399 -0.019331
v 0.049545 2.314399 -0.009855
v 0.050515 2.314399 -0.000000
v 0.049545 2.314399 0.009855
v 0.046670 2.314399 0.019331
v 0.042002 2.314399 0.028065
v 0.035720 2.314399 0.035720
v 0.028065 2.314399 0.042002
v 0.019331 2.314399 0.046670
v 0.009855 2.314399 0.049545
v -0.000000 2.314399 0.050515
v -0.009855 2.314399 0.049545
v -0.019331 2.314399 0.046670
v -0.028065 2.314399 0.042002
v -0.035720 2.314399 0.035720
v -0.042002 2.314399 0.028065
v -0.046670 2.314399 0.019331
v -0.049545 2.314399 0.009855
v -0.050515 2.314399 -0.000000
v -0.049545 2.314399 -0.009855
v -0.046670 2.314399 -0.019331
v -0.042002 2.314399 -0.028065
v -0.035720 2.314399 -0.035720
v -0.028065 2.314399 -0.042002
v -0.019331 2.314399 -0.046670
v -0.009855 2.314399 -0.049545
v 0.000000 0.500000 -1.000000
v 0.195090 0.500000 -0.980785
v 0.382683 0.500000 -0.923880
v 0.555570 0.500000 -0.831470
v 0.707107 0.500000 -0.707107
v 0.831470 0.500000 -0.555570
v 0.923880 0.500000 -0.382683
v 0.980785 0.500000 -0.195090
v 1.000000 0.500000 -0.000000
v 0.980785 0.500000 0.195090
v 0.923880 0.500000 0.382683
v 0.831470 0.500000 0.555570
v 0.707107 0.500000 0.707107
v 0.555570 0.500000 0.831470
v 0.382683 0.500000 0.923880
v 0.195090 0.500000 0.980785
v -0.000000 0.500000 1.000000
v -0.195091 0.500000 0.980785
v -0.382684 0.500000 0.923879
v -0.555571 0.500000 0.831469
v -0.707107 0.500000 0.707106
v -0.831470 0.500000 0.555570
v -0.923880 0.500000 0.382683
v -0.980785 0.500000 0.195089
v -1.000000 0.500000 -0.000001
v -0.980785 0.500000 -0.195091
v -0.923879 0.500000 -0.382684
v -0.831469 0.500000 -0.555571
v -0.707106 0.500000 -0.707108
v -0.555569 0.500000 -0.831470
v -0.382682 0.500000 -0.923880
v -0.195089 0.500000 -0.980786
v 0.195090 0.500000 0.838579
v 0.195090 0.000000 0.838579
v -0.000000 0.000000 0.857793
v -0.000000 0.500000 0.857793
v -0.195091 0.000000 0.838579
v -0.195091 0.500000 0.838579
vt 0.692583 0.954603
vt 0.687627 0.914952
vt 0.692583 0.914952
vt 0.687627 0.954603
vt 0.682670 0.914952
vt 0.682670 0.954603
vt 0.677714 0.914952
vt 0.677714 0.954603
vt 0.672758 0.914952
vt 0.672758 0.954603
vt 0.667801 0.914952
vt 0.667801 0.954603
vt 0.662845 0.914952
vt 0.662845 0.954603
vt 0.657889 0.914952
vt 0.657889 0.954603
vt 0.652932 0.914952
vt 0.652932 0.954603
vt 0.647976 0.914952
vt 0.647976 0.954603
vt 0.643019 0.914952
vt 0.643019 0.954603
vt 0.638063 0.914952
vt 0.638063 0.954603
vt 0.633107 0.914952
vt 0.633107 0.954603
vt 0.628150 0.914952
vt 0.628150 0.954603
vt 0.623194 0.914952
vt 0.623194 0.954603
vt 0.618238 0.914952
vt 0.618238 0.954603
vt 0.613281 0.914952
vt 0.613281 0.954603
vt 0.608325 0.914952
vt 0.608325 0.954603
vt 0.603369 0.914952
vt 0.603369 0.954603
vt 0.598412 0.914952
vt 0.598412 0.954603
vt 0.593456 0.914952
vt 0.593456 0.954603
vt 0.588499 0.914952
vt 0.588499 0.954603
vt 0.583543 0.914952
vt 0.583543 0.954603
vt 0.578587 0.914952
vt 0.578587 0.954603
vt 0.573630 0.914952
vt 0.573630 0.954603
vt 0.568674 0.914952
vt 0.568674 0.954603
vt 0.563718 0.914952
vt 0.563718 0.954603
vt 0.558761 0.914952
vt 0.558761 0.954603
vt 0.553805 0.914952
vt 0.553805 0.954603
vt 0.548848 0.914952
vt 0.548848 0.954603
vt 0.543892 0.914952
vt 0.922463 0.396009
vt 0.917507 0.396009
vt 0.917507 0.396009
vt 0.543892 0.954603
vt 0.538936 0.914952
vt 0.538936 0.954603
vt 0.533979 0.914952
vt 0.912551 0.396009
vt 0.907594 0.396009
vt 0.907594 0.396009
vt 0.877856 0.396009
vt 0.872900 0.396009
vt 0.872900 0.396009
vt 0.833249 0.396009
vt 0.828292 0.396009
vt 0.828292 0.396009
vt 0.942289 0.396009
vt 0.937333 0.396009
vt 0.937333 0.396009
vt 0.897682 0.396009
vt 0.892725 0.396009
vt 0.892725 0.396009
vt 0.853074 0.396009
vt 0.848118 0.396009
vt 0.848118 0.396009
vt 0.962114 0.396009
vt 0.957158 0.396009
vt 0.957158 0.396009
vt 0.803511 0.396009
vt 0.808467 0.396009
vt 0.803511 0.396009
vt 0.912551 0.396009
vt 0.867943 0.396009
vt 0.867943 0.396009
vt 0.823336 0.396009
vt 0.823336 0.396009
vt 0.932376 0.396009
vt 0.932376 0.396009
vt 0.887769 0.396009
vt 0.887769 0.396009
vt 0.843162 0.396009
vt 0.843162 0.396009
vt 0.952202 0.396009
vt 0.952202 0.396009
vt 0.907594 0.396009
vt 0.862987 0.396009
vt 0.862987 0.396009
vt 0.818380 0.396009
vt 0.818380 0.396009
vt 0.927420 0.396009
vt 0.927420 0.396009
vt 0.882812 0.396009
vt 0.882812 0.396009
vt 0.838205 0.396009
vt 0.838205 0.396009
vt 0.947245 0.396009
vt 0.947245 0.396009
vt 0.902638 0.396009
vt 0.902638 0.396009
vt 0.858031 0.396009
vt 0.858031 0.396009
vt 0.813423 0.396009
vt 0.813423 0.396009
vt 0.922463 0.396009
vt 0.877856 0.396009
vt 0.833249 0.396009
vt 0.942289 0.396009
vt 0.897682 0.396009
vt 0.853074 0.396009
vt 0.808467 0.396009
vt 0.891095 0.347357
vt 0.940829 0.367958
vt 0.920228 0.417692
vt 0.843162 0.396009
vt 0.838205 0.396009
vt 0.902638 0.396009
vt 0.833249 0.396009
vt 0.897682 0.396009
vt 0.828292 0.396009
vt 0.892725 0.396009
vt 0.962114 0.396009
vt 0.957158 0.396009
vt 0.823336 0.396009
vt 0.887769 0.396009
vt 0.952202 0.396009
vt 0.818380 0.396009
vt 0.882812 0.396009
vt 0.947245 0.396009
vt 0.813423 0.396009
vt 0.877856 0.396009
vt 0.942289 0.396009
vt 0.808467 0.396009
vt 0.872900 0.396009
vt 0.937333 0.396009
vt 0.803511 0.396009
vt 0.867943 0.396009
vt 0.932376 0.396009
vt 0.862987 0.396009
vt 0.927420 0.396009
vt 0.858031 0.396009
vt 0.922463 0.396009
vt 0.853074 0.396009
vt 0.917507 0.396009
vt 0.848118 0.396009
vt 0.912551 0.396009
vt 0.533979 0.875301
vt 0.538936 0.875301
vt 0.543892 0.875301
vt 0.548848 0.875301
vt 0.553805 0.875301
vt 0.558761 0.875301
vt 0.563718 0.875301
vt 0.568674 0.875301
vt 0.573630 0.875301
vt 0.578587 0.875301
vt 0.583543 0.875301
vt 0.588499 0.875301
vt 0.593456 0.875301
vt 0.598412 0.875301
vt 0.603369 0.875301
vt 0.608325 0.875301
vt 0.608325 0.914952
vt 0.613281 0.914952
vt 0.618238 0.875301
vt 0.623194 0.875301
vt 0.628150 0.875301
vt 0.633107 0.875301
vt 0.638063 0.875301
vt 0.643019 0.875301
vt 0.647976 0.875301
vt 0.652932 0.875301
vt 0.657889 0.875301
vt 0.662845 0.875301
vt 0.667801 0.875301
vt 0.672758 0.875301
vt 0.677714 0.875301
vt 0.682670 0.875301
vt 0.687627 0.875301
vt 0.692583 0.875301
vt 0.632812 0.200108
vt 0.627856 0.160457
vt 0.632812 0.160457
vt 0.637769 0.200108
vt 0.637769 0.160457
vt 0.618238 0.875301
vt 0.618238 0.914952
vt 0.533979 0.954603
vt 0.913088 0.419858
vt 0.891095 0.417692
vt 0.905662 0.420590
vt 0.898235 0.419858
vt 0.884514 0.414175
vt 0.878746 0.409441
vt 0.874012 0.403673
vt 0.870494 0.397092
vt 0.868328 0.389951
vt 0.870494 0.367958
vt 0.867597 0.382525
vt 0.868328 0.375099
vt 0.874012 0.361377
vt 0.878745 0.355609
vt 0.884514 0.350875
vt 0.898235 0.345191
vt 0.905662 0.344460
vt 0.913088 0.345191
vt 0.920228 0.347357
vt 0.926809 0.350875
vt 0.932577 0.355609
vt 0.937311 0.361377
vt 0.942995 0.375099
vt 0.940829 0.397092
vt 0.943726 0.382525
vt 0.942995 0.389951
vt 0.937311 0.403672
vt 0.932577 0.409441
vt 0.926809 0.414175
vt 0.962114 0.396009
vt 0.608325 0.875301
vt 0.627856 0.200108
vn 0.0980 0.0000 -0.9952
vn 0.2903 0.0000 -0.9569
vn 0.4714 0.0000 -0.8819
vn 0.6344 0.0000 -0.7730
vn 0.7730 0.0000 -0.6344
vn 0.8819 0.0000 -0.4714
vn 0.9569 0.0000 -0.2903
vn 0.9952 0.0000 -0.0980
vn 0.9952 0.0000 0.0980
vn 0.9569 0.0000 0.2903
vn 0.8819 0.0000 0.4714
vn 0.7730 0.0000 0.6344
vn 0.6344 0.0000 0.7730
vn 0.4714 0.0000 0.8819
vn 0.2903 0.0000 0.9569
vn 0.0980 0.0000 0.9952
vn -0.0980 0.0000 0.9952
vn -0.2903 0.0000 0.9569
vn -0.4714 0.0000 0.8819
vn -0.6344 0.0000 0.7730
vn -0.7730 0.0000 0.6344
vn -0.8819 0.0000 0.4714
vn -0.9569 0.0000 0.2903
vn -0.9952 0.0000 0.0980
vn -0.9952 0.0000 -0.0980
vn -0.9569 0.0000 -0.2903
vn -0.8819 0.0000 -0.4714
vn -0.7730 0.0000 -0.6344
vn -0.6344 0.0000 -0.7730
vn -0.4714 0.0000 -0.8819
vn 0.0000 -1.0000 0.0000
vn -0.2903 0.0000 -0.9569
vn -0.0980 0.0000 -0.9952
vn 0.6577 0.6662 0.3516
vn 0.0000 1.0000 0.0000
vn -0.7422 0.6662 -0.0731
vn 0.5765 0.6662 0.4731
vn -0.7137 0.6662 -0.2165
vn 0.4731 0.6662 0.5765
vn -0.6577 0.6662 -0.3516
vn 0.3516 0.6662 0.6577
vn 0.0731 0.6662 -0.7422
vn -0.5765 0.6662 -0.4731
vn 0.2165 0.6662 0.7137
vn 0.2165 0.6662 -0.7137
vn -0.4731 0.6662 -0.5765
vn 0.0731 0.6662 0.7422
vn 0.3516 0.6662 -0.6577
vn -0.3516 0.6662 -0.6577
vn -0.0731 0.6662 0.7422
vn 0.4731 0.6662 -0.5765
vn -0.2165 0.6662 -0.7137
vn -0.2165 0.6662 0.7137
vn 0.5765 0.6662 -0.4731
vn -0.0731 0.6662 -0.7422
vn -0.3516 0.6662 0.6577
vn 0.6577 0.6662 -0.3516
vn -0.4731 0.6662 0.5765
vn 0.7137 0.6662 -0.2165
vn -0.5765 0.6662 0.4731
vn 0.7422 0.6662 -0.0731
vn -0.6577 0.6662 0.3516
vn 0.7422 0.6662 0.0731
vn -0.7137 0.6662 0.2165
vn 0.7137 0.6662 0.2165
vn -0.7422 0.6662 0.0731
vn 1.0000 0.0000 0.0000
vn -1.0000 0.0000 -0.0000
vn 0.0000 1.0000 -0.0002
vn 0.0000 1.0000 0.0001
vn 0.0000 1.0000 -0.0001
usemtl Material.001
s off
f 2/1/1 129/2/1 128/3/1
f 4/4/2 130/5/2 129/2/2
f 6/6/3 131/7/3 130/5/3
f 8/8/4 132/9/4 131/7/4
f 10/10/5 133/11/5 132/9/5
f 12/12/6 134/13/6 133/11/6
f 14/14/7 135/15/7 134/13/7
f 16/16/8 136/17/8 135/15/8
f 18/18/9 137/19/9 136/17/9
f 20/20/10 138/21/10 137/19/10
f 22/22/11 139/23/11 138/21/11
f 24/24/12 140/25/12 139/23/12
f 26/26/13 141/27/13 140/25/13
f 28/28/14 142/29/14 141/27/14
f 30/30/15 143/31/15 142/29/15
f 32/32/16 144/33/16 143/31/16
f 33/34/17 145/35/17 144/33/17
f 35/36/18 146/37/18 145/35/18
f 37/38/19 147/39/19 146/37/19
f 39/40/20 148/41/20 147/39/20
f 41/42/21 149/43/21 148/41/21
f 43/44/22 150/45/22 149/43/22
f 45/46/23 151/47/23 150/45/23
f 47/48/24 152/49/24 151/47/24
f 49/50/25 153/51/25 152/49/25
f 51/52/26 154/53/26 153/51/26
f 53/54/27 155/55/27 154/53/27
f 55/56/28 156/57/28 155/55/28
f 57/58/29 157/59/29 156/57/29
f 59/60/30 158/61/30 157/59/30
f 18/62/31 73/63/31 20/64/31
f 61/65/32 159/66/32 158/61/32
f 63/67/33 128/68/33 159/66/33
f 74/69/34 107/70/34 75/71/34
f 35/72/31 82/73/31 37/74/31
f 53/75/31 91/76/31 55/77/31
f 10/78/31 69/79/31 12/80/31
f 28/81/31 78/82/31 30/83/31
f 45/84/31 87/85/31 47/86/31
f 2/87/31 64/88/31 4/89/31
f 2/90/31 95/91/31 65/92/31
f 20/64/31 74/69/31 22/93/31
f 37/74/31 83/94/31 39/95/31
f 55/77/31 92/96/31 57/97/31
f 12/80/31 70/98/31 14/99/31
f 30/83/31 79/100/31 32/101/31
f 49/102/31 87/85/31 88/103/31
f 6/104/31 64/88/31 66/105/31
f 24/106/31 74/69/31 75/71/31
f 39/95/31 84/107/31 41/108/31
f 59/109/31 92/96/31 93/110/31
f 14/99/31 71/111/31 16/112/31
f 32/101/31 80/113/31 33/114/31
f 49/102/31 89/115/31 51/116/31
f 6/104/31 67/117/31 8/118/31
f 24/106/31 76/119/31 26/120/31
f 43/121/31 84/107/31 85/122/31
f 59/109/31 94/123/31 61/124/31
f 16/112/31 72/125/31 18/62/31
f 33/114/31 81/126/31 35/72/31
f 51/116/31 90/127/31 53/75/31
f 8/118/31 68/128/31 10/78/31
f 26/120/31 77/129/31 28/81/31
f 43/121/31 86/130/31 45/84/31
f 61/124/31 95/91/31 63/131/31
f 114/132/35 106/133/35 98/134/35
f 89/115/36 120/135/36 121/136/36
f 76/119/37 107/70/37 108/137/37
f 90/127/38 121/136/38 122/138/38
f 76/119/39 109/139/39 77/129/39
f 90/127/40 123/140/40 91/76/40
f 77/129/41 110/141/41 78/82/41
f 65/142/42 96/143/42 64/88/42
f 92/96/43 123/140/43 124/144/43
f 78/82/44 111/145/44 79/100/44
f 64/88/45 98/146/45 66/105/45
f 92/96/46 125/147/46 93/110/46
f 79/100/47 112/148/47 80/113/47
f 66/105/48 99/149/48 67/117/48
f 93/110/49 126/150/49 94/123/49
f 80/113/50 113/151/50 81/126/50
f 67/117/51 100/152/51 68/128/51
f 95/91/52 126/150/52 127/153/52
f 81/126/53 114/154/53 82/73/53
f 68/128/54 101/155/54 69/79/54
f 65/92/55 127/153/55 97/156/55
f 82/73/56 115/157/56 83/94/56
f 69/79/57 102/158/57 70/98/57
f 83/94/58 116/159/58 84/107/58
f 70/98/59 103/160/59 71/111/59
f 84/107/60 117/161/60 85/122/60
f 71/111/61 104/162/61 72/125/61
f 85/122/62 118/163/62 86/130/62
f 72/125/63 105/164/63 73/63/63
f 87/85/64 118/163/64 119/165/64
f 73/63/65 106/166/65 74/69/65
f 87/85/66 120/135/66 88/103/66
f 159/66/33 1/167/33 62/168/33
f 158/61/32 62/168/32 60/169/32
f 157/59/30 60/169/30 58/170/30
f 156/57/29 58/170/29 56/171/29
f 155/55/28 56/171/28 54/172/28
f 154/53/27 54/172/27 52/173/27
f 153/51/26 52/173/26 50/174/26
f 152/49/25 50/174/25 48/175/25
f 151/47/24 48/175/24 46/176/24
f 150/45/23 46/176/23 44/177/23
f 149/43/22 44/177/22 42/178/22
f 148/41/21 42/178/21 40/179/21
f 147/39/20 40/179/20 38/180/20
f 146/37/19 38/180/19 36/181/19
f 145/35/18 36/181/18 34/182/18
f 34/182/67 165/183/67 145/35/67
f 145/35/31 163/184/31 144/33/31
f 142/29/15 31/185/15 29/186/15
f 141/27/14 29/186/14 27/187/14
f 140/25/13 27/187/13 25/188/13
f 139/23/12 25/188/12 23/189/12
f 138/21/11 23/189/11 21/190/11
f 137/19/10 21/190/10 19/191/10
f 136/17/9 19/191/9 17/192/9
f 135/15/8 17/192/8 15/193/8
f 134/13/7 15/193/7 13/194/7
f 133/11/6 13/194/6 11/195/6
f 132/9/5 11/195/5 9/196/5
f 131/7/4 9/196/4 7/197/4
f 130/5/3 7/197/3 5/198/3
f 129/2/2 5/198/2 3/199/2
f 128/3/1 3/199/1 1/200/1
f 163/201/17 164/202/17 162/203/17
f 160/204/16 162/203/16 161/205/16
f 143/31/68 161/206/68 31/185/68
f 143/31/31 163/184/31 160/207/31
f 2/1/1 4/4/1 129/2/1
f 4/4/2 6/6/2 130/5/2
f 6/6/3 8/8/3 131/7/3
f 8/8/4 10/10/4 132/9/4
f 10/10/5 12/12/5 133/11/5
f 12/12/6 14/14/6 134/13/6
f 14/14/7 16/16/7 135/15/7
f 16/16/8 18/18/8 136/17/8
f 18/18/9 20/20/9 137/19/9
f 20/20/10 22/22/10 138/21/10
f 22/22/11 24/24/11 139/23/11
f 24/24/12 26/26/12 140/25/12
f 26/26/13 28/28/13 141/27/13
f 28/28/14 30/30/14 142/29/14
f 30/30/15 32/32/15 143/31/15
f 32/32/16 33/34/16 144/33/16
f 33/34/17 35/36/17 145/35/17
f 35/36/18 37/38/18 146/37/18
f 37/38/19 39/40/19 147/39/19
f 39/40/20 41/42/20 148/41/20
f 41/42/21 43/44/21 149/43/21
f 43/44/22 45/46/22 150/45/22
f 45/46/23 47/48/23 151/47/23
f 47/48/24 49/50/24 152/49/24
f 49/50/25 51/52/25 153/51/25
f 51/52/26 53/54/26 154/53/26
f 53/54/27 55/56/27 155/55/27
f 55/56/28 57/58/28 156/57/28
f 57/58/29 59/60/29 157/59/29
f 59/60/30 61/65/30 158/61/30
f 18/62/31 72/125/31 73/63/31
f 61/65/32 63/67/32 159/66/32
f 63/67/33 2/208/33 128/68/33
f 74/69/34 106/166/34 107/70/34
f 35/72/31 81/126/31 82/73/31
f 53/75/31 90/127/31 91/76/31
f 10/78/31 68/128/31 69/79/31
f 28/81/31 77/129/31 78/82/31
f 45/84/31 86/130/31 87/85/31
f 2/87/31 65/142/31 64/88/31
f 2/90/31 63/131/31 95/91/31
f 20/64/31 73/63/31 74/69/31
f 37/74/31 82/73/31 83/94/31
f 55/77/31 91/76/31 92/96/31
f 12/80/31 69/79/31 70/98/31
f 30/83/31 78/82/31 79/100/31
f 49/102/31 47/86/31 87/85/31
f 6/104/31 4/89/31 64/88/31
f 24/106/31 22/93/31 74/69/31
f 39/95/31 83/94/31 84/107/31
f 59/109/31 57/97/31 92/96/31
f 14/99/31 70/98/31 71/111/31
f 32/101/31 79/100/31 80/113/31
f 49/102/31 88/103/31 89/115/31
f 6/104/31 66/105/31 67/117/31
f 24/106/31 75/71/31 76/119/31
f 43/121/31 41/108/31 84/107/31
f 59/109/31 93/110/31 94/123/31
f 16/112/31 71/111/31 72/125/31
f 33/114/31 80/113/31 81/126/31
f 51/116/31 89/115/31 90/127/31
f 8/118/31 67/117/31 68/128/31
f 26/120/31 76/119/31 77/129/31
f 43/121/31 85/122/31 86/130/31
f 61/124/31 94/123/31 95/91/31
f 98/134/35 96/209/35 126/210/35
f 96/209/35 97/211/35 126/210/35
f 97/211/69 127/212/69 126/210/69
f 126/210/69 125/213/69 124/214/69
f 124/214/35 123/215/35 122/216/35
f 122/216/35 121/217/35 118/218/35
f 121/217/35 120/219/35 118/218/35
f 120/219/35 119/220/35 118/218/35
f 118/218/35 117/221/35 116/222/35
f 116/222/35 115/223/35 114/132/35
f 114/132/35 113/224/35 112/225/35
f 112/225/35 111/226/35 114/132/35
f 111/226/35 110/227/35 114/132/35
f 110/227/35 109/228/35 108/229/35
f 108/229/35 107/230/35 106/133/35
f 106/133/35 105/231/35 102/232/35
f 105/231/35 104/233/35 102/232/35
f 104/233/35 103/234/35 102/232/35
f 102/232/35 101/235/35 100/236/35
f 100/236/35 99/237/35 98/134/35
f 126/210/70 124/214/70 98/134/70
f 124/214/35 122/216/35 98/134/35
f 118/218/71 116/222/71 114/132/71
f 110/227/35 108/229/35 114/132/35
f 108/229/35 106/133/35 114/132/35
f 102/232/35 100/236/35 106/133/35
f 100/236/35 98/134/35 106/133/35
f 122/216/35 118/218/35 98/134/35
f 118/218/35 114/132/35 98/134/35
f 89/115/36 88/103/36 120/135/36
f 76/119/37 75/71/37 107/70/37
f 90/127/38 89/115/38 121/136/38
f 76/119/39 108/137/39 109/139/39
f 90/127/40 122/138/40 123/140/40
f 77/129/41 109/139/41 110/141/41
f 65/142/42 97/238/42 96/143/42
f 92/96/43 91/76/43 123/140/43
f 78/82/44 110/141/44 111/145/44
f 64/88/45 96/143/45 98/146/45
f 92/96/46 124/144/46 125/147/46
f 79/100/47 111/145/47 112/148/47
f 66/105/48 98/146/48 99/149/48
f 93/110/49 125/147/49 126/150/49
f 80/113/50 112/148/50 113/151/50
f 67/117/51 99/149/51 100/152/51
f 95/91/52 94/123/52 126/150/52
f 81/126/53 113/151/53 114/154/53
f 68/128/54 100/152/54 101/155/54
f 65/92/55 95/91/55 127/153/55
f 82/73/56 114/154/56 115/157/56
f 69/79/57 101/155/57 102/158/57
f 83/94/58 115/157/58 116/159/58
f 70/98/59 102/158/59 103/160/59
f 84/107/60 116/159/60 117/161/60
f 71/111/61 103/160/61 104/162/61
f 85/122/62 117/161/62 118/163/62
f 72/125/63 104/162/63 105/164/63
f 87/85/64 86/130/64 118/163/64
f 73/63/65 105/164/65 106/166/65
f 87/85/66 119/165/66 120/135/66
f 159/66/33 128/68/33 1/167/33
f 158/61/32 159/66/32 62/168/32
f 157/59/30 158/61/30 60/169/30
f 156/57/29 157/59/29 58/170/29
f 155/55/28 156/57/28 56/171/28
f 154/53/27 155/55/27 54/172/27
f 153/51/26 154/53/26 52/173/26
f 152/49/25 153/51/25 50/174/25
f 151/47/24 152/49/24 48/175/24
f 150/45/23 151/47/23 46/176/23
f 149/43/22 150/45/22 44/177/22
f 148/41/21 149/43/21 42/178/21
f 147/39/20 148/41/20 40/179/20
f 146/37/19 147/39/19 38/180/19
f 145/35/18 146/37/18 36/181/18
f 34/182/67 164/239/67 165/183/67
f 145/35/31 165/183/31 163/184/31
f 142/29/15 143/31/15 31/185/15
f 141/27/14 142/29/14 29/186/14
f 140/25/13 141/27/13 27/187/13
f 139/23/12 140/25/12 25/188/12
f 138/21/11 139/23/11 23/189/11
f 137/19/10 138/21/10 21/190/10
f 136/17/9 137/19/9 19/191/9
f 135/15/8 136/17/8 17/192/8
f 134/13/7 135/15/7 15/193/7
f 133/11/6 134/13/6 13/194/6
f 132/9/5 133/11/5 11/195/5
f 131/7/4 132/9/4 9/196/4
f 130/5/3 131/7/3 7/197/3
f 129/2/2 130/5/2 5/198/2
f 128/3/1 129/2/1 3/199/1
f 163/201/17 165/240/17 164/202/17
f 160/204/16 163/201/16 162/203/16
f 143/31/68 160/207/68 161/206/68
f 143/31/31 144/33/31 163/184/31
