# Blender v2.90.0 OBJ File: 'rook.blend'
# www.blender.org
o Cube_Cube.002
v -1.000000 -1.000000 1.000000
v -1.000000 3.000000 1.000000
v -1.000000 -1.000000 -1.000000
v -1.000000 3.000000 -1.000000
v 1.000000 -1.000000 1.000000
v 1.000000 3.000000 1.000000
v 1.000000 -1.000000 -1.000000
v 1.000000 3.000000 -1.000000
v -0.500000 -1.000000 -1.000000
v -0.500000 3.000000 -1.000000
v -0.500000 -1.000000 1.000000
v -0.500000 3.000000 1.000000
v 0.499750 3.000000 -1.000000
v 0.499750 -1.000000 1.000000
v 0.499750 -1.000000 -1.000000
v 0.499750 3.000000 1.000000
v -1.000000 -1.000000 0.500000
v -1.000000 3.000000 0.500000
v 1.000000 -1.000000 0.500000
v 1.000000 3.000000 0.500000
v -0.500000 3.000000 0.500000
v -0.500000 -1.000000 0.500000
v 0.499750 3.000000 0.500000
v 0.499750 -1.000000 0.500000
v -1.000000 3.000000 -0.499750
v 1.000000 -1.000000 -0.499750
v -1.000000 -1.000000 -0.499750
v 1.000000 3.000000 -0.499750
v -0.500000 3.000000 -0.499750
v -0.500000 -1.000000 -0.499750
v 0.499750 3.000000 -0.499750
v 0.499750 -1.000000 -0.499750
v -1.000000 3.500000 -0.499750
v -1.000000 3.500000 -1.000000
v 0.499750 3.500000 -1.000000
v 1.000000 3.500000 -1.000000
v 1.000000 3.500000 0.500000
v 1.000000 3.500000 1.000000
v -0.500000 3.500000 1.000000
v -1.000000 3.500000 1.000000
v -0.500000 3.500000 -1.000000
v 0.499750 3.500000 1.000000
v -0.500000 3.500000 0.500000
v 0.499750 3.500000 0.500000
v -1.000000 3.500000 0.500000
v 1.000000 3.500000 -0.499750
v -0.500000 3.500000 -0.499750
v 0.499750 3.500000 -0.499750
v -1.000000 4.000000 -0.499750
v -1.000000 4.000000 -1.000000
v 0.499750 4.000000 -1.000000
v 1.000000 4.000000 -1.000000
v 1.000000 4.000000 0.500000
v 1.000000 4.000000 1.000000
v -0.500000 4.000000 1.000000
v -1.000000 4.000000 1.000000
v -0.500000 4.000000 -1.000000
v -0.500000 4.000000 0.500000
v 0.499750 4.000000 1.000000
v 0.499750 4.000000 0.500000
v -1.000000 4.000000 0.500000
v 1.000000 4.000000 -0.499750
v -0.500000 4.000000 -0.499750
v 0.499750 4.000000 -0.499750
vt 0.335033 -0.442196
vt 0.500000 1.065317
vt 0.335034 1.065317
vt -0.324504 -0.442196
vt -0.159537 1.065317
vt -0.324503 1.065317
vt 1.324421 0.688439
vt 1.159537 -0.819074
vt 1.324421 -0.819074
vt 0.994653 -0.442196
vt 1.159537 1.065317
vt 0.994653 1.065317
vt -0.324421 1.065317
vt -0.159537 1.253851
vt -0.324421 1.253851
vt -0.159537 -0.630635
vt -0.159537 -0.442196
vt 1.324503 1.442101
vt 1.159619 1.065317
vt 1.324503 1.065317
vt -0.324421 1.630635
vt -0.159537 1.819074
vt -0.324421 1.819074
vt 0.664967 -0.442196
vt 0.664967 1.065317
vt -0.819074 -0.442196
vt -0.654189 1.065317
vt -0.819073 1.065317
vt 0.500000 -0.442196
vt 0.500000 1.065317
vt 1.159537 -0.630635
vt 1.159537 -0.442196
vt -0.159537 1.630634
vt -0.654190 -0.442196
vt -0.654107 1.253851
vt -0.654107 1.630635
vt 0.994735 1.065317
vt 1.159619 1.442101
vt 0.994735 1.442101
vt -0.654107 1.819074
vt 0.170149 1.442101
vt -0.159537 1.065317
vt 0.170149 1.065317
vt 1.819074 0.688439
vt 1.654107 0.876878
vt 1.654107 0.688439
vt -0.654107 1.065317
vt 1.654107 -0.819074
vt -0.159537 -0.442196
vt 0.005348 1.065317
vt -0.159536 1.065317
vt 1.819074 -0.819074
vt -0.819074 1.065317
vt -0.819074 1.253851
vt 0.664967 1.442101
vt 0.500082 1.065317
vt 0.664967 1.065317
vt -0.159537 1.442101
vt 0.005347 1.818885
vt -0.159537 1.818885
vt -0.819074 1.630635
vt -0.819074 1.819074
vt 0.500000 -0.630635
vt 0.500000 -0.442196
vt 0.005348 -0.442196
vt 0.170232 1.819074
vt 0.005347 1.630635
vt 0.170232 1.630635
vt 0.994735 1.442101
vt 0.829851 1.065317
vt 0.994735 1.065317
vt 1.324503 1.630540
vt 1.159619 1.442101
vt 1.324503 1.442101
vt 0.170149 1.442101
vt 0.335116 1.065317
vt 0.335116 1.442101
vt 0.664967 1.442101
vt 0.829851 1.065317
vt 0.829851 1.442101
vt -0.324504 -0.630635
vt -0.159537 -0.819074
vt 0.335116 1.065317
vt 0.500082 1.442101
vt 0.335116 1.442101
vt 0.500082 1.442101
vt 0.664966 1.630635
vt 0.500082 1.630635
vt -0.654190 -0.630635
vt 0.005348 -0.630635
vt 0.335033 -0.630635
vt 0.994653 -0.630635
vt 1.159537 0.876878
vt 1.159537 0.688439
vt 0.664967 -0.630635
vt 1.324421 0.876878
vt 0.750031 0.999964
vt 0.812531 0.928536
vt 0.812531 0.999964
vt 0.437531 0.928571
vt 0.375031 0.857107
vt 0.437531 0.857107
vt 0.562531 0.928571
vt 0.625031 0.857107
vt 0.625031 0.928571
vt 0.375031 0.857107
vt 0.312500 0.928571
vt 0.312500 0.857107
vt 1.159537 1.065317
vt -0.159537 -0.630635
vt 0.005347 -0.819074
vt 1.159537 -0.819074
vt 1.819074 0.876878
vt 1.654107 1.065317
vt -0.819074 -0.630635
vt -0.654190 -0.819074
vt 1.159619 1.630635
vt 0.994735 1.442101
vt 0.994735 1.630635
vt 0.829851 1.442101
vt 0.994735 1.442101
vt 0.664967 1.630635
vt 0.500082 1.819074
vt 0.500082 1.630635
vt 0.170314 1.819074
vt 0.335198 1.630635
vt 0.335198 1.819074
vt 0.335198 1.442101
vt 0.500082 1.630635
vt 0.335198 1.630635
vt 0.500000 -0.819074
vt 0.500000 -0.630635
vt 0.664967 -0.819074
vt -0.159537 1.065317
vt 1.159619 1.442101
vt 0.500082 1.442101
vt 0.005347 1.442101
vt 0.005347 1.819074
vt 0.829851 1.442101
vt 1.159619 1.630540
vt 0.170149 1.065317
vt 0.664967 1.065317
vt -0.324504 -0.819074
vt 0.500082 1.065317
vt 0.664966 1.442101
vt 0.750031 0.928536
vt 0.375031 0.928571
vt 0.562531 0.857107
vt 0.375031 0.928571
vt 1.324421 1.065317
vt -0.159537 -0.819074
vt 0.994653 -0.819074
vt 1.819074 1.065317
vt -0.819074 -0.819074
vt 0.994735 1.630635
vt 0.829851 1.630635
vt 0.664967 1.819074
vt 0.170314 1.630635
vt 0.500082 1.442101
vt 0.335033 -0.819074
vt 0.500000 -0.819074
vn -1.0000 0.0000 0.0000
vn 0.0000 0.0000 -1.0000
vn 1.0000 0.0000 0.0000
vn 0.0000 0.0000 1.0000
vn 0.0000 -1.0000 0.0000
vn 0.0000 1.0000 0.0000
s off
f 25/1/1 3/2/1 27/3/1
f 13/4/2 7/5/2 15/6/2
f 20/7/3 5/8/3 19/9/3
f 12/10/4 1/11/4 11/12/4
f 19/13/5 14/14/5 24/15/5
f 13/4/2 36/16/2 8/17/2
f 23/18/1 48/19/1 31/20/1
f 22/21/5 1/22/5 17/23/5
f 16/24/4 11/12/4 14/25/4
f 4/26/2 9/27/2 3/28/2
f 6/29/4 14/25/4 5/30/4
f 12/10/4 40/31/4 2/32/4
f 24/15/5 11/33/5 22/21/5
f 10/34/2 15/6/2 9/27/2
f 32/35/5 22/21/5 30/36/5
f 31/37/4 47/38/4 29/39/4
f 30/36/5 17/23/5 27/40/5
f 29/41/6 23/42/6 31/43/6
f 8/44/3 46/45/3 28/46/3
f 26/47/5 24/15/5 32/35/5
f 28/46/3 19/9/3 26/48/3
f 2/49/1 17/50/1 1/51/1
f 8/44/3 26/48/3 7/52/3
f 7/53/5 32/35/5 15/54/5
f 29/55/3 43/56/3 21/57/3
f 21/58/2 44/59/2 23/60/2
f 9/61/5 27/40/5 3/62/5
f 25/1/1 34/63/1 4/64/1
f 15/54/5 30/36/5 9/61/5
f 18/65/1 27/3/1 17/50/1
f 42/66/1 60/67/1 44/68/1
f 43/69/6 42/70/6 44/71/6
f 45/72/2 58/73/2 43/74/2
f 48/75/6 37/76/6 46/77/6
f 33/78/6 43/79/6 47/80/6
f 35/81/2 52/82/2 36/16/2
f 41/83/6 48/84/6 35/85/6
f 46/86/4 64/87/4 48/88/4
f 10/34/2 35/81/2 13/4/2
f 4/26/2 41/89/2 10/34/2
f 2/49/1 45/90/1 18/65/1
f 18/65/1 33/91/1 25/1/1
f 16/24/4 39/92/4 12/10/4
f 20/7/3 38/93/3 6/94/3
f 6/29/4 42/95/4 16/24/4
f 28/46/3 37/96/3 20/7/3
f 61/97/6 55/98/6 58/99/6
f 60/100/6 54/101/6 53/102/6
f 50/103/6 63/104/6 57/105/6
f 51/106/6 62/107/6 52/108/6
f 37/96/3 54/109/3 38/93/3
f 40/110/1 61/111/1 45/90/1
f 39/92/4 56/112/4 40/31/4
f 36/113/3 62/114/3 46/45/3
f 34/115/2 57/116/2 41/89/2
f 41/117/3 63/118/3 47/38/3
f 48/119/1 51/120/1 35/121/1
f 43/122/3 55/123/3 39/124/3
f 47/125/4 49/126/4 33/127/4
f 44/128/2 53/129/2 37/130/2
f 33/91/1 50/131/1 34/63/1
f 38/132/4 59/133/4 42/95/4
f 25/1/1 4/64/1 3/2/1
f 13/4/2 8/17/2 7/5/2
f 20/7/3 6/94/3 5/8/3
f 12/10/4 2/32/4 1/11/4
f 19/13/5 5/134/5 14/14/5
f 13/4/2 35/81/2 36/16/2
f 23/18/1 44/135/1 48/19/1
f 22/21/5 11/33/5 1/22/5
f 16/24/4 12/10/4 11/12/4
f 4/26/2 10/34/2 9/27/2
f 6/29/4 16/24/4 14/25/4
f 12/10/4 39/92/4 40/31/4
f 24/15/5 14/14/5 11/33/5
f 10/34/2 13/4/2 15/6/2
f 32/35/5 24/15/5 22/21/5
f 31/37/4 48/19/4 47/38/4
f 30/36/5 22/21/5 17/23/5
f 29/41/6 21/58/6 23/42/6
f 8/44/3 36/113/3 46/45/3
f 26/47/5 19/13/5 24/15/5
f 28/46/3 20/7/3 19/9/3
f 2/49/1 18/65/1 17/50/1
f 8/44/3 28/46/3 26/48/3
f 7/53/5 26/47/5 32/35/5
f 29/55/3 47/136/3 43/56/3
f 21/58/2 43/137/2 44/59/2
f 9/61/5 30/36/5 27/40/5
f 25/1/1 33/91/1 34/63/1
f 15/54/5 32/35/5 30/36/5
f 18/65/1 25/1/1 27/3/1
f 42/66/1 59/138/1 60/67/1
f 43/69/6 39/139/6 42/70/6
f 45/72/2 61/140/2 58/73/2
f 48/75/6 44/141/6 37/76/6
f 33/78/6 45/142/6 43/79/6
f 35/81/2 51/143/2 52/82/2
f 41/83/6 47/144/6 48/84/6
f 46/86/4 62/145/4 64/87/4
f 10/34/2 41/89/2 35/81/2
f 4/26/2 34/115/2 41/89/2
f 2/49/1 40/110/1 45/90/1
f 18/65/1 45/90/1 33/91/1
f 16/24/4 42/95/4 39/92/4
f 20/7/3 37/96/3 38/93/3
f 6/29/4 38/132/4 42/95/4
f 28/46/3 46/45/3 37/96/3
f 61/97/6 56/146/6 55/98/6
f 60/100/6 59/147/6 54/101/6
f 50/103/6 49/148/6 63/104/6
f 51/106/6 64/149/6 62/107/6
f 37/96/3 53/150/3 54/109/3
f 40/110/1 56/151/1 61/111/1
f 39/92/4 55/152/4 56/112/4
f 36/113/3 52/153/3 62/114/3
f 34/115/2 50/154/2 57/116/2
f 41/117/3 57/155/3 63/118/3
f 48/119/1 64/156/1 51/120/1
f 43/122/3 58/157/3 55/123/3
f 47/125/4 63/158/4 49/126/4
f 44/128/2 60/159/2 53/129/2
f 33/91/1 49/160/1 50/131/1
f 38/132/4 54/161/4 59/133/4
